<?xml version="1.0" encoding="UTF-8"?>
<svg width="63px" height="62px" viewBox="0 0 63 62" version="1.1" xmlns="http://www.w3.org/2000/svg" xmlns:xlink="http://www.w3.org/1999/xlink">
    <!-- Generator: Sketch 51.1 (57501) - http://www.bohemiancoding.com/sketch -->
    <title>basketball</title>
    <desc>Created with Sketch.</desc>
    <defs>
        <filter x="-2.5%" y="-4.2%" width="105.0%" height="110.5%" filterUnits="objectBoundingBox" id="filter-1">
            <feOffset dx="0" dy="1" in="SourceAlpha" result="shadowOffsetOuter1"></feOffset>
            <feGaussianBlur stdDeviation="1.5" in="shadowOffsetOuter1" result="shadowBlurOuter1"></feGaussianBlur>
            <feColorMatrix values="0 0 0 0 0   0 0 0 0 0   0 0 0 0 0  0 0 0 0.5 0" type="matrix" in="shadowBlurOuter1" result="shadowMatrixOuter1"></feColorMatrix>
            <feMerge>
                <feMergeNode in="shadowMatrixOuter1"></feMergeNode>
                <feMergeNode in="SourceGraphic"></feMergeNode>
            </feMerge>
        </filter>
    </defs>
    <g id="Page-1" stroke="none" stroke-width="1" fill="none" fill-rule="evenodd">
        <g id="Timeline" transform="translate(-314.000000, -496.000000)" fill="#FFFFFF" fill-rule="nonzero">
            <g id="Timeline-Card3" filter="url(#filter-1)" transform="translate(388.500000, 526.266234) scale(-1, 1) translate(-388.500000, -526.266234) translate(288.000000, 478.766234)">
                <g id="basketball" transform="translate(114.817129, 19.824047)">
                    <path d="M56.1972159,15.7759045 C55.5702862,15.093249 54.5140942,15.0539061 53.8386652,15.6875516 L50.4633002,18.8547675 C50.4087943,18.8250917 50.3557344,18.7968772 50.3059004,18.7716977 C49.8415986,18.5373265 49.3062166,18.4746026 48.8179989,18.8002495 L48.8848521,18.6417538 C48.9916393,18.3887227 48.8749521,18.0960115 48.6244471,17.988212 C48.4097604,17.8957 48.167487,17.9698894 48.0350041,18.1519909 C48.0521346,17.9970922 48.0618121,17.8399455 48.0618121,17.6804381 C48.0618121,15.3626916 46.2024915,13.4835623 43.9087917,13.4835623 C41.6152032,13.4835623 39.7558826,15.3624668 39.7558826,17.6804381 C39.7558826,17.8399455 39.7655602,17.9972046 39.7826906,18.1519909 C39.650319,17.9698894 39.4080456,17.8958124 39.1932476,17.988212 C38.9428539,18.0960115 38.8261666,18.3886103 38.9328426,18.6417538 L38.9996958,18.8002495 C38.5114781,18.4744902 37.9759849,18.5371016 37.5116831,18.7715853 C37.1591742,18.9495277 36.6825251,19.2343703 36.1743961,19.7584177 L30.4340286,15.905174 C29.6662733,15.389782 28.6304376,15.6011096 28.1204175,16.3767268 C27.6105087,17.1525688 27.8194111,18.1993147 28.5871665,18.7147067 C40.4901557,26.7048002 39.8255167,26.2612371 39.9077206,26.3093479 C39.5061563,29.626404 39.9982672,26.7891064 37.28743,40.9320923 C37.2348151,41.2067058 37.3064515,41.4906491 37.4824279,41.7063606 C37.6585155,41.9221845 37.9208115,42.0481942 38.1975683,42.0481942 C38.4413991,42.0481942 38.7184896,42.0481942 39.0221656,42.0481942 L36.9962125,52.4836176 C36.7540503,53.7305627 37.6976708,54.8973607 38.9635439,54.8973607 C39.9014913,54.8973607 40.7392146,54.2280818 40.9265371,53.2628318 L43.1038833,42.0480818 C43.7704133,42.0480818 44.4470659,42.0480818 45.108479,42.0480818 L46.7497758,53.1715563 C46.8979431,54.1758119 47.7525743,54.8971359 48.7280085,54.8971359 C49.9586195,54.8971359 50.8911164,53.7932865 50.7112467,52.5746683 L49.1580494,42.0479694 C49.3217897,42.0479694 49.4772985,42.0479694 49.6199039,42.0479694 C49.8968832,42.0479694 50.1592905,41.922859 50.3353781,41.7068102 C50.5115769,41.4907615 50.5827684,41.2067058 50.5300422,40.9317551 C47.8195387,26.7900057 48.3255543,29.7439831 47.8602513,25.8999569 L52.1096027,21.9127225 C52.2823532,21.9491428 52.4557711,21.9932069 52.6291891,22.0506475 C52.7284122,22.0834707 52.8373129,22.0532329 52.9060571,21.9738726 C52.9746901,21.8944 52.9895958,21.7812048 52.9438776,21.6863322 C52.8806952,21.5548145 52.8164004,21.4303786 52.7518831,21.3102141 L56.1101176,18.1589602 C56.7851016,17.5255395 56.8243682,16.4584476 56.1972159,15.7759045 Z M45.8706726,23.164164 C44.1120211,23.164164 43.1807479,23.164164 41.2475661,23.164164 L39.042077,21.6836344 C39.0553141,21.6779016 39.0708873,21.6737425 39.0833458,21.6674476 C39.4607717,21.4769156 39.7182846,21.1418265 39.8264066,20.7621113 L39.8981542,20.9325223 C39.9780222,21.1219302 40.1602278,21.235575 40.3518886,21.235575 C40.4164058,21.235575 40.481813,21.2227604 40.5447729,21.1955576 C40.7951666,21.0877581 40.9118539,20.7951593 40.8051779,20.5420159 L40.7437753,20.3963347 C41.5055239,21.3018959 42.640249,21.8770891 43.9085693,21.8770891 C45.1768896,21.8770891 46.3117259,21.3018959 47.0733633,20.3963347 L47.0119606,20.5420159 C46.9051734,20.7950469 47.0218607,21.0877581 47.2723656,21.1955576 C47.3354368,21.2227604 47.4009552,21.235575 47.46525,21.235575 C47.6569107,21.235575 47.8392276,21.1219302 47.9189843,20.9325223 L47.9907319,20.7621113 C48.0202096,20.8658641 48.0601436,20.9662447 48.1116462,21.0611173 L45.8706726,23.164164 Z" id="Shape"></path>
                    <ellipse id="Oval" cx="12.9607132" cy="16.8544528" rx="4.32023775" ry="4.33400216"></ellipse>
                    <path d="M26.5519323,13.2581395 C27.1014409,12.51876 26.9479974,11.4737689 26.2089993,10.9239768 C25.4701114,10.3741846 24.425549,10.527597 23.8760404,11.2670868 L15.2656761,22.8498896 C14.8043534,22.8498896 11.3033719,22.8498896 10.815373,22.8498896 L2.95569142,13.2797562 C2.37112891,12.5681696 1.32039351,12.4650491 0.60884326,13.0499133 C-0.102596758,13.6347774 -0.205443603,14.6861653 0.379118903,15.3979725 L8.69350918,25.5218684 L8.69350918,36.5991051 L3.92595715,52.3134553 C3.60496035,53.3714605 4.20197912,54.4893529 5.25932846,54.8105153 C6.31910292,55.1321189 7.43487544,54.5323657 7.75510061,53.4764559 L12.1969159,38.8369852 L13.7466734,38.8369852 L15.1888441,53.0965093 C15.3000686,54.1964245 16.2814678,54.9980071 17.380926,54.8866149 C18.4802738,54.775333 19.2814431,53.7933171 19.1701083,52.6934019 C17.4331761,35.5194831 17.5538806,36.6698005 17.5256611,36.5203585 L17.5256611,25.4005502 L26.5519323,13.2581395 Z" id="Shape"></path>
                    <ellipse id="Oval" cx="32.6417963" cy="4.81555796" rx="4.80026416" ry="4.81555796"></ellipse>
                </g>
            </g>
        </g>
    </g>
</svg>