<?xml version="1.0" encoding="UTF-8"?>
<svg width="56px" height="46px" viewBox="0 0 56 46" version="1.1" xmlns="http://www.w3.org/2000/svg" xmlns:xlink="http://www.w3.org/1999/xlink">
    <!-- Generator: Sketch 51.1 (57501) - http://www.bohemiancoding.com/sketch -->
    <title>books-stack-of-three</title>
    <desc>Created with Sketch.</desc>
    <defs>
        <filter x="-2.5%" y="-4.2%" width="105.0%" height="110.5%" filterUnits="objectBoundingBox" id="filter-1">
            <feOffset dx="0" dy="1" in="SourceAlpha" result="shadowOffsetOuter1"></feOffset>
            <feGaussianBlur stdDeviation="1.5" in="shadowOffsetOuter1" result="shadowBlurOuter1"></feGaussianBlur>
            <feColorMatrix values="0 0 0 0 0   0 0 0 0 0   0 0 0 0 0  0 0 0 0.5 0" type="matrix" in="shadowBlurOuter1" result="shadowMatrixOuter1"></feColorMatrix>
            <feMerge>
                <feMergeNode in="shadowMatrixOuter1"></feMergeNode>
                <feMergeNode in="SourceGraphic"></feMergeNode>
            </feMerge>
        </filter>
    </defs>
    <g id="Page-1" stroke="none" stroke-width="1" fill="none" fill-rule="evenodd">
        <g id="Timeline" transform="translate(-319.000000, -383.000000)" fill="#FFFFFF" fill-rule="nonzero">
            <g id="Timeline-Card4" filter="url(#filter-1)" transform="translate(388.500000, 404.902597) scale(-1, 1) translate(-388.500000, -404.902597) translate(288.000000, 357.402597)">
                <g id="books-stack-of-three" transform="translate(117.311170, 28.363636)">
                    <path d="M46.3317585,11.8327268 C46.1300089,10.3073822 46.1015704,7.68018353 47.5102439,6.79801141 C47.5354067,6.78183851 47.5541672,6.75847765 47.5762033,6.73841126 C48.727888,6.36793192 49.5249104,5.84800295 48.8992635,5.14837502 L31.9103134,0 L4.40135268,3.84660585 C4.40135268,3.84660585 1.25123072,4.29944721 1.53263784,9.22170105 C1.68540171,11.900713 2.52083841,13.2164088 3.25145468,13.863924 L0.994093097,14.5481278 C0.367552793,15.2477557 1.1644263,15.7678344 2.3162599,16.1377148 C2.33814712,16.1583802 2.35660981,16.1815913 2.38221935,16.1977642 C3.78999942,17.080685 3.76290096,19.7075842 3.56040695,21.2332284 C-1.49702996,22.6775587 0.318418216,23.1482202 0.318418216,23.1482202 L1.42781741,23.4182179 C0.64747099,24.1274298 -0.127515294,25.4723267 0.0176550474,28.0230036 C0.299211063,32.9443589 2.88666767,33.2839899 2.88666767,33.2839899 L20.8883856,39.1688312 L48.0598067,32.5496202 C48.0598067,32.5496202 49.8758504,32.07821 44.8170735,30.6337299 C44.6136861,29.1104817 44.5853965,26.483882 45.9964522,25.5987149 C46.0223596,25.5829913 46.0412689,25.5591812 46.0622628,25.5394143 C47.2140964,25.1689349 48.0103743,24.6494552 47.3845785,23.9498273 L46.2035619,23.5911781 C46.9912041,23.1134784 48.1743051,21.8650199 48.3596765,18.6220528 C48.4875753,16.3913898 47.9089784,15.0849784 47.2392592,14.3158669 L49.5735983,13.7477187 C49.5737472,13.7486172 51.389791,13.2772069 46.3317585,11.8327268 Z M23.6044854,11.7696825 L28.1737033,10.8252147 L43.6150631,7.6337613 L45.9156035,7.15785857 C45.1805205,8.51099169 45.2113412,10.3627894 45.3329865,11.5529955 C45.3596383,11.8222444 45.3903102,12.0681325 45.4200888,12.2550194 L42.9020161,12.8847145 L23.4124139,17.7609953 L23.6044854,11.7696825 Z M3.9770086,16.5591088 L6.27725127,17.0350116 L21.1065133,20.1009752 L22.4020283,20.3678281 L26.2870844,21.1709327 L26.4787093,27.1623953 L6.44758447,22.1501423 L4.47282115,21.6565691 C4.50185522,21.4693827 4.53252711,21.2237942 4.56037004,20.9537965 C4.68127087,19.7644889 4.71268722,17.9122419 3.9770086,16.5591088 Z M3.08335487,8.98479793 C3.05551194,7.67554131 3.2874867,6.72867757 3.75634968,6.24738387 C4.05473057,5.94009866 4.40686171,5.87615578 4.6483656,5.87615578 C4.7759666,5.87615578 4.86783337,5.89397593 4.87408687,5.89397593 L16.7269847,9.78041505 L22.6405544,11.7195165 L22.4465472,17.7527591 L5.85662951,13.0748959 L4.98114069,12.8282591 C4.94897987,12.8191244 4.90535432,12.8128349 4.87170458,12.8113374 C4.80336285,12.8063957 3.16316134,12.6545501 3.08335487,8.98479793 Z M20.9312667,36.5549601 L3.46630679,31.6303103 C3.43399708,31.6208761 3.39081821,31.6145867 3.35716847,31.6129394 C3.2876356,31.6082972 1.64668962,31.4566013 1.56732983,27.7877477 C1.53904022,26.4768438 1.77220613,25.5308786 2.24017575,25.0491356 C2.5393011,24.7418504 2.89158113,24.6779075 3.13263834,24.6779075 C3.26053713,24.6779075 3.35210612,24.6951287 3.35880629,24.6951287 C3.35880629,24.6951287 3.35955075,24.6951287 3.35880629,24.6951287 L21.1240826,30.5215678 L20.9312667,36.5549601 Z M43.8168126,30.354298 C43.8443578,30.6244454 43.8750296,30.8698842 43.9048082,31.0570707 L21.8966866,36.5634958 L22.089056,30.5720332 L26.7942128,29.5991131 L27.4890949,29.7681799 L30.0935252,28.9168561 L42.0988891,26.4356628 L44.4003229,25.9594606 C43.6644954,27.312444 43.6950184,29.1649904 43.8168126,30.354298 Z M45.0290966,22.2116892 C44.9890445,22.2125877 44.9489924,22.2179786 44.9113225,22.2299586 L43.2514672,22.6973256 L27.4468094,27.1544586 L27.2535467,21.121216 L32.4388824,19.4202157 L44.9945535,15.3019649 C44.9961914,15.3012162 45.6550414,15.1540128 46.1386447,15.6486341 C46.6067632,16.1299278 46.8390358,17.0767916 46.8116395,18.3860482 C46.7297486,22.0546023 45.0888026,22.2070469 45.0290966,22.2116892 Z" id="Shape"></path>
                </g>
            </g>
        </g>
    </g>
</svg>